PathFileType	4	(X/Y/Z)	/Users/itak/Documents/Research/Walk-IL/dataset/trc/00253_00009.trc
DataRate	CameraRate	NumFrames	NumMarkers	Units	OrigDataRate	OrigDataStartFrame	OrigNumFrames
100.000000	100.000000	4	54	mm	100.000000	118	474
Frame#	Time	RPSI			LPSI			L3			STRN			T10			C7			CLAV			RBAK			LBAK			LSHO			LUPA			LAEL			LAOL			LWTS			LWPS			LFRA			LIFD			LHPS			LHTS			RSHO			RUPA			RAEL			RAOL			RWTS			RWPS			RFRA			RIFD			RHPS			RBHD			LFHD			RFHD			LBHD			LHIP			RHIP			RASI			LASI			LKNE			LTHI			LANK			LTIP			LTOE			LMT1			LMT5			LHEE			RKNE			RTHI			RANK			RTIP			RTOE			RMT1			RMT5			RHEE			RHTS			*53			
		X1	Y1	Z1	X2	Y2	Z2	X3	Y3	Z3	X4	Y4	Z4	X5	Y5	Z5	X6	Y6	Z6	X7	Y7	Z7	X8	Y8	Z8	X9	Y9	Z9	X10	Y10	Z10	X11	Y11	Z11	X12	Y12	Z12	X13	Y13	Z13	X14	Y14	Z14	X15	Y15	Z15	X16	Y16	Z16	X17	Y17	Z17	X18	Y18	Z18	X19	Y19	Z19	X20	Y20	Z20	X21	Y21	Z21	X22	Y22	Z22	X23	Y23	Z23	X24	Y24	Z24	X25	Y25	Z25	X26	Y26	Z26	X27	Y27	Z27	X28	Y28	Z28	X29	Y29	Z29	X30	Y30	Z30	X31	Y31	Z31	X32	Y32	Z32	X33	Y33	Z33	X34	Y34	Z34	X35	Y35	Z35	X36	Y36	Z36	X37	Y37	Z37	X38	Y38	Z38	X39	Y39	Z39	X40	Y40	Z40	X41	Y41	Z41	X42	Y42	Z42	X43	Y43	Z43	X44	Y44	Z44	X45	Y45	Z45	X46	Y46	Z46	X47	Y47	Z47	X48	Y48	Z48	X49	Y49	Z49	X50	Y50	Z50	X51	Y51	Z51	X52	Y52	Z52	X53	Y53	Z53	X54	Y54	Z54	

119	1.18	-1518.995727539062	1050.541870117188	-334.5370788574219	-1517.880493164062	1053.656127929688	-455.3085021972656	-1514.541625976562	1134.785888671875	-411.3271179199219	-1244.07861328125	1302.30810546875	-417.0236206054688	-1504.04150390625	1259.400268554688	-405.0280456542969	-1423.273681640625	1515.617309570312	-415.0856628417969	-1261.811889648438	1421.735107421875	-417.5642395019531	-1504.202270507812	1382.130615234375	-338.8976135253906	-1450.861938476562	1478.4072265625	-522.9627075195312	-1365.3583984375	1472.7998046875	-583.7325439453125	-1418.3896484375	1357.557495117188	-655.0018310546875	-1444.189819335938	1150.097290039062	-678.5510864257812	-1511.679931640625	1146.954711914062	-622.9747314453125	-1394.678344726562	902.3179321289062	-626.3212890625	-1431.045043945312	891.7779541015625	-703.109375	-1443.790405273438	1040.82666015625	-692.9102783203125	-1439.8701171875	713.57568359375	-631.3905029296875	-1433.734252929688	801.43017578125	-698.478271484375	-1386.049926757812	795.6807861328125	-648.3909912109375	-1365.097534179688	1478.19580078125	-247.0734252929688	-1388.330322265625	1417.800048828125	-177.7459869384766	-1427.228637695312	1141.052856445312	-125.0902938842773	-1464.761840820312	1134.194946289062	-212.5883178710938	-1310.48583984375	914.9647216796875	-169.3128356933594	-1359.828247070312	906.6657104492188	-100.3561248779297	-1404.931030273438	1070.972045898438	-111.1770324707031	-1311.935546875	719.7470092773438	-169.4064788818359	-1329.23681640625	796.7449340820312	-100.4593963623047	-1396.251342773438	1656.885620117188	-390.5039978027344	-1180.243286132812	1718.268310546875	-430.1654052734375	-1207.255981445312	1716.664794921875	-333.803955078125	-1318.001831054688	1668.11767578125	-506.5044555664062	-1412.793090820312	988.515869140625	-591.0986938476562	-1430.670532226562	1003.804504394531	-222.1060943603516	-1327.669189453125	1040.673828125	-257.3617858886719	-1313.901977539062	1023.240844726562	-536.1361083984375	-1200.67431640625	543.4549560546875	-529.7606811523438	-1262.14892578125	674.9382934570312	-566.3941040039062	-1242.027587890625	52.71891403198242	-553.6400146484375	-1227.275268554688	313.1751708984375	-553.229248046875	-1042.927490234375	90.60306549072266	-478.9556274414062	-1111.892578125	74.63967132568359	-442.1131591796875	-1115.860107421875	62.14175796508789	-555.5079345703125	-1309.478149414062	55.66744613647461	-510.0390319824219	-1439.621826171875	508.1907348632812	-281.1494445800781	-1389.22802734375	770.509521484375	-223.339111328125	-1556.4091796875	38.75928497314453	-334.5377807617188	-1447.38134765625	391.5039978027344	-306.8055725097656	-1348.220703125	48.20641326904297	-393.1915893554688	-1407.61279296875	42.293212890625	-432.7996215820312	-1443.068237304688	42.83507537841797	-318.3185119628906	-1622.951293945312	34.40423583984375	-388.0350036621094	-1280.917114257812	791.7485961914062	-153.9699096679688	nan	nan	nan	
120	1.19	-1515.317993164062	1050.162109375	-334.9420166015625	-1513.784545898438	1053.205810546875	-455.7039489746094	-1510.52685546875	1134.352661132812	-411.7476196289062	-1239.802124023438	1301.484008789062	-416.6941833496094	-1499.870971679688	1258.962646484375	-405.3759765625	-1418.661865234375	1515.052856445312	-415.1760559082031	-1257.33740234375	1420.938598632812	-417.27001953125	-1500.049926757812	1381.671997070312	-339.2779541015625	-1446.002563476562	1477.923706054688	-523.1105346679688	-1360.4033203125	1472.201171875	-583.72802734375	-1413.73583984375	1357.113037109375	-654.9943237304688	-1440.705688476562	1149.78662109375	-678.4038696289062	-1508.242431640625	1147.123413085938	-622.8706665039062	-1393.057861328125	901.6676025390625	-625.8958740234375	-1429.374877929688	891.3369750976562	-702.7538452148438	-1441.015502929688	1040.50341796875	-692.6697387695312	-1439.950317382812	712.9698486328125	-630.79833984375	-1433.038940429688	801.0162963867188	-698.0083618164062	-1385.715698242188	794.752685546875	-647.7581787109375	-1361.034545898438	1477.488647460938	-247.0415496826172	-1384.570922851562	1417.135986328125	-177.7820587158203	-1424.005249023438	1140.4990234375	-125.103385925293	-1461.243408203125	1133.60791015625	-212.7331390380859	-1307.481811523438	914.2003784179688	-168.5475769042969	-1357.087646484375	906.0664672851562	-99.81681060791016	-1401.866821289062	1070.420166015625	-111.0288391113281	-1309.130615234375	719.0178833007812	-168.4281311035156	-1326.647338867188	796.0972900390625	-99.65032958984375	-1391.556762695312	1656.219116210938	-390.4013671875	-1175.459594726562	1717.404052734375	-429.4804992675781	-1202.630493164062	1715.83056640625	-333.2186584472656	-1313.016235351562	1667.453247070312	-506.2059631347656	-1408.432739257812	987.8917846679688	-591.0665893554688	-1427.411499023438	1003.345336914062	-222.1636810302734	-1324.38623046875	1040.041625976562	-257.1665954589844	-1309.762329101562	1022.429809570312	-535.7980346679688	-1196.67431640625	542.957275390625	-529.2564086914062	-1258.279052734375	674.4406127929688	-566.0499267578125	-1229.12255859375	51.45578384399414	-552.0256958007812	-1219.3125	312.3672180175781	-552.3583374023438	-1031.260986328125	92.27095031738281	-475.5571899414062	-1100.4013671875	75.52490234375	-439.285888671875	-1103.0771484375	62.50150680541992	-552.6407470703125	-1297.058349609375	53.75077056884766	-509.1262512207031	-1437.67041015625	507.7816162109375	-281.0744018554688	-1386.53125	769.9703369140625	-223.2680358886719	-1556.445556640625	38.76754760742188	-334.5448913574219	-1445.85302734375	390.9966430664062	-306.8186950683594	-1348.260986328125	48.24169540405273	-393.1646118164062	-1407.63232421875	42.31101226806641	-432.7864990234375	-1443.072021484375	42.83700942993164	-318.2714538574219	-1623.036987304688	34.46449661254883	-388.0492248535156	-1278.162963867188	790.9618530273438	-152.9397583007812	nan	nan	nan	
121	1.2	-1511.481201171875	1049.72802734375	-335.3799743652344	-1509.506591796875	1052.7109375	-456.129150390625	-1506.357177734375	1133.861572265625	-412.2060852050781	-1235.407958984375	1300.658325195312	-416.3560180664062	-1495.577026367188	1258.47265625	-405.7677917480469	-1413.9697265625	1514.44921875	-415.3029174804688	-1252.74658203125	1420.133666992188	-416.9761657714844	-1495.80078125	1381.165649414062	-339.7030639648438	-1441.039672851562	1477.388305664062	-523.29296875	-1355.33251953125	1471.5693359375	-583.7434692382812	-1408.923706054688	1356.637939453125	-655.0296630859375	-1437.018310546875	1149.447387695312	-678.326416015625	-1504.607421875	1147.231079101562	-622.8432006835938	-1391.13818359375	901.0135498046875	-625.548828125	-1427.379028320312	890.8836669921875	-702.4819946289062	-1437.98291015625	1040.154418945312	-692.5072631835938	-1439.642211914062	712.4088134765625	-630.2868041992188	-1431.980224609375	800.5947265625	-697.6285400390625	-1384.992065429688	793.869873046875	-647.2060546875	-1356.89697265625	1476.759033203125	-247.0338592529297	-1380.741821289062	1416.44140625	-177.8451843261719	-1420.689453125	1139.9052734375	-125.1793899536133	-1457.631713867188	1132.98291015625	-212.9534454345703	-1304.383178710938	913.4154663085938	-167.8190765380859	-1354.2685546875	905.4325561523438	-99.32773590087891	-1398.72021484375	1069.831665039062	-110.9441528320312	-1306.263305664062	718.2374267578125	-167.4723052978516	-1323.997680664062	795.4130859375	-98.87241363525391	-1386.795288085938	1655.548461914062	-390.3377990722656	-1170.584350585938	1716.51904296875	-428.7752685546875	-1197.94140625	1714.975708007812	-332.6230163574219	-1307.93017578125	1666.7744140625	-505.9167175292969	-1403.900390625	987.2344970703125	-591.0314331054688	-1424.017944335938	1002.839172363281	-222.2370147705078	-1320.978881835938	1039.371337890625	-256.9626159667969	-1305.439208984375	1021.587158203125	-535.427978515625	-1192.459350585938	542.4007568359375	-528.8274536132812	-1254.22265625	673.8818969726562	-565.7048950195312	-1216.801513671875	50.32729339599609	-550.3514404296875	-1211.48291015625	311.5723876953125	-551.4942626953125	-1020.146240234375	93.93878173828125	-472.1771545410156	-1089.4306640625	76.47248840332031	-436.486083984375	-1090.901611328125	62.88372802734375	-549.8025512695312	-1285.166748046875	51.99330520629883	-508.1278686523438	-1435.633544921875	507.3379821777344	-281.0239562988281	-1383.673583984375	769.4205322265625	-223.2248687744141	-1556.483154296875	38.78513717651367	-334.5533447265625	-1444.249389648438	390.470703125	-306.8458862304688	-1348.29833984375	48.2634391784668	-393.1482543945312	-1407.652465820312	42.33413696289062	-432.7736511230469	-1443.066040039062	42.83436965942383	-318.2224731445312	-1623.1142578125	34.52202606201172	-388.0697631835938	-1275.327392578125	790.1445922851562	-151.9430541992188	nan	nan	nan	
122	1.21	-1507.48046875	1049.240966796875	-335.8497009277344	-1505.041015625	1052.176513671875	-456.5806579589844	-1502.028930664062	1133.311767578125	-412.6993103027344	-1230.887573242188	1299.8369140625	-416.0041198730469	-1491.152221679688	1257.931762695312	-406.2028198242188	-1409.197387695312	1513.810668945312	-415.4700622558594	-1248.04541015625	1419.325073242188	-416.67822265625	-1491.448364257812	1380.612426757812	-340.1732177734375	-1435.9716796875	1476.8017578125	-523.5094604492188	-1350.1435546875	1470.906005859375	-583.7764892578125	-1403.9541015625	1356.131958007812	-655.1050415039062	-1433.123413085938	1149.078125	-678.3211059570312	-1500.76904296875	1147.275268554688	-622.8941650390625	-1388.905029296875	900.3543701171875	-625.2931518554688	-1425.043090820312	890.4153442382812	-702.2993774414062	-1434.688354492188	1039.778076171875	-692.4277954101562	-1438.882080078125	711.90234375	-629.8772583007812	-1430.526245117188	800.160400390625	-697.3443603515625	-1383.816284179688	793.0421142578125	-646.756103515625	-1352.690185546875	1476.0146484375	-247.0487060546875	-1376.845581054688	1415.723876953125	-177.9344177246094	-1417.282470703125	1139.277099609375	-125.3185958862305	-1453.921875	1132.326049804688	-213.2500305175781	-1301.191284179688	912.6218872070312	-167.12646484375	-1351.369384765625	904.7699584960938	-98.89152526855469	-1395.49169921875	1069.211791992188	-110.9228515625	-1303.334838867188	717.4130859375	-166.5474243164062	-1321.2861328125	794.6993408203125	-98.12922668457031	-1381.965576171875	1654.880859375	-390.3171691894531	-1165.612182617188	1715.617431640625	-428.0526428222656	-1193.186279296875	1714.105712890625	-332.0209655761719	-1302.739501953125	1666.084716796875	-505.6419372558594	-1399.176025390625	986.5531616210938	-590.9962768554688	-1420.479248046875	1002.283142089844	-222.326904296875	-1317.432373046875	1038.6640625	-256.7571105957031	-1300.888916015625	1020.740661621094	-535.0405883789062	-1188.023071289062	541.79296875	-528.4562377929688	-1249.93115234375	673.2767333984375	-565.3751220703125	-1205.125	49.31467056274414	-548.6459350585938	-1203.809692382812	310.7895812988281	-550.63916015625	-1009.640075683594	95.57057952880859	-468.8424072265625	-1079.033447265625	77.44347381591797	-433.74951171875	-1079.385131835938	63.27296829223633	-547.0262451171875	-1273.8544921875	50.37688064575195	-507.0693054199219	-1433.494873046875	506.8597412109375	-281.0118408203125	-1380.662109375	768.8488159179688	-223.2034606933594	-1556.521728515625	38.81374359130859	-334.5621948242188	-1442.5595703125	389.92822265625	-306.8946838378906	-1348.329345703125	48.26832580566406	-393.1396179199219	-1407.669311523438	42.35622406005859	-432.76220703125	-1443.050415039062	42.82486724853516	-318.1712646484375	-1623.181030273438	34.57756805419922	-388.0926513671875	-1272.41796875	789.2938842773438	-150.9850769042969	nan	nan	nan	
